<svg width="200" height="400" viewBox="0 0 200 400" fill="none" xmlns="http://www.w3.org/2000/svg">
  <!-- Shadow -->
  <ellipse cx="100" cy="380" rx="60" ry="15" fill="black" fill-opacity="0.1" />

  <!-- Can Body - Red Background -->
  <rect x="40" y="60" width="120" height="300" rx="10" fill="#E41E2B" />

  <!-- Top Rim - Silver -->
  <path d="M40 65C40 51.1929 57.9086 40 80 40H120C142.091 40 160 51.1929 160 65V75H40V65Z" fill="#D1D5DB" />
  <ellipse cx="100" cy="50" rx="60" ry="20" fill="#9CA3AF" />
  <ellipse cx="100" cy="48" rx="55" ry="18" fill="#E5E7EB" />

  <!-- Can Tab -->
  <rect x="90" y="42" width="20" height="15" rx="4" fill="#6B7280" />
  <circle cx="100" cy="50" r="4" fill="#9CA3AF" />

  <!-- Bottom Rim - Silver -->
  <path d="M40 350V365C40 378.807 57.9086 390 80 390H120C142.091 390 160 378.807 160 365V350H40Z" fill="#9CA3AF" />

  <!-- Reflections/Highlights on Body -->
  <rect x="50" y="70" width="10" height="280" rx="5" fill="white" fill-opacity="0.2" />
  <rect x="140" y="70" width="5" height="280" rx="2.5" fill="black" fill-opacity="0.1" />

  <!-- Stylized Logo/Wave -->
  <path d="M40 220C60 210 100 250 160 230V260C100 280 60 240 40 250V220Z" fill="white" fill-opacity="0.9" />
  <path d="M40 265C60 255 100 295 160 275V285C100 305 60 265 40 275V265Z" fill="white" fill-opacity="0.4" />

  <!-- Text "COLA" -->
  <text x="100" y="180" fill="white" font-size="24" font-weight="bold" text-anchor="middle" font-family="Arial, sans-serif">COLA</text>

  <!-- Small Details -->
  <rect x="120" y="320" width="20" height="2" fill="white" fill-opacity="0.5" />
  <rect x="120" y="325" width="15" height="2" fill="white" fill-opacity="0.5" />
</svg>
